<svg  viewBox="0 0 16 16" fill="none" xmlns="http://www.w3.org/2000/svg">
<path d="M12.5463 12.9092H3.45437C3.05266 12.9092 2.72721 13.2346 2.72721 13.6363C2.72721 14.0381 3.05266 14.3638 3.45437 14.3638H12.5456C12.9477 14.3638 13.2731 14.0381 13.2731 13.6363C13.2731 13.2346 12.9473 12.9092 12.5463 12.9092Z" fill="#C94C48"/>
<path d="M2.54576 7.45413V9.27238C2.54576 9.57366 2.79019 9.81809 3.09113 9.81809C3.39241 9.81809 3.63684 9.57366 3.63684 9.27238V7.45413C3.63684 7.15284 3.39241 6.90875 3.09113 6.90875C2.78985 6.90909 2.54576 7.15318 2.54576 7.45413Z" fill="#C94C48"/>
<path d="M4.36367 6.72729V9.27271C4.36367 9.57399 4.6081 9.81842 4.90938 9.81842C5.21032 9.81842 5.45475 9.57399 5.45475 9.27271V6.72729C5.45475 6.42601 5.21032 6.18158 4.90938 6.18158C4.6081 6.18158 4.36367 6.42601 4.36367 6.72729Z" fill="#C94C48"/>
<path d="M6.18192 5.99975V9.27233C6.18192 9.57362 6.42635 9.81805 6.72763 9.81805C7.02857 9.81805 7.27301 9.57362 7.27301 9.27233V5.99975C7.27301 5.69847 7.02857 5.45404 6.72763 5.45404C6.42635 5.45404 6.18192 5.69847 6.18192 5.99975Z" fill="#C94C48"/>
<path d="M15.2728 1.63611H0.727505C0.325794 1.63611 0 1.9619 0 2.36361V11.4549C0 11.8566 0.325794 12.1824 0.727505 12.1824H14.608C14.5869 12.1637 14.5627 12.1483 14.5429 12.1289L13.5363 11.1216C12.9559 11.4494 12.2985 11.6247 11.6248 11.6247C10.7063 11.6247 9.8368 11.3081 9.13756 10.7284H1.45433V3.09044H14.5457V5.14052C15.1775 5.85373 15.5271 6.75928 15.5271 7.72134C15.5271 8.39506 15.3522 9.0521 15.0247 9.63185L16 10.6079V2.36327C16.0003 1.9619 15.6745 1.63611 15.2728 1.63611Z" fill="#C94C48"/>
<path d="M14.4245 10.0611C14.352 9.98826 14.2546 9.95864 14.16 9.96885L14.0071 9.816C14.5178 9.2359 14.7996 8.50159 14.7996 7.722C14.7996 6.87432 14.4698 6.07702 13.8706 5.47752C13.2704 4.87666 12.4735 4.54712 11.6248 4.54712C10.7774 4.54712 9.98047 4.877 9.38063 5.47752C8.7801 6.07702 8.44988 6.87432 8.44988 7.722C8.44988 8.56967 8.78078 9.36731 9.38063 9.96681C9.98047 10.567 10.7774 10.8965 11.6248 10.8965C12.4054 10.8965 13.1393 10.615 13.7188 10.1037L13.8723 10.2562C13.8621 10.3515 13.8914 10.4478 13.9646 10.5214L15.0584 11.6152C15.122 11.6788 15.2051 11.7098 15.2888 11.7098C15.3716 11.7098 15.4553 11.6785 15.5193 11.6152C15.646 11.4879 15.646 11.2819 15.5193 11.1553L14.4245 10.0611ZM13.41 9.50552C12.9334 9.98247 12.2992 10.246 11.6248 10.246C10.9514 10.246 10.3175 9.98315 9.84089 9.5062C9.36463 9.02994 9.10147 8.39571 9.10147 7.72165C9.10147 7.04794 9.36394 6.41405 9.84089 5.93745C10.3175 5.4605 10.9521 5.19769 11.6248 5.19769C12.2992 5.19769 12.9334 5.46016 13.41 5.93745C13.8859 6.41405 14.1487 7.04794 14.1487 7.72165C14.1487 8.39571 13.8859 9.02892 13.41 9.50552Z" fill="#C94C48"/>
</svg>
