<svg  viewBox="0 0 41 40" fill="none" xmlns="http://www.w3.org/2000/svg">
<g filter="url(#filter0_d_7_176)">
<path d="M28.8127 20.441H27.0918C27.2117 20.3302 27.2867 20.1738 27.2867 20.0001V19.9696C27.2867 19.6339 27.0078 19.3617 26.6639 19.3617C26.32 19.3617 26.0411 19.6339 26.0411 19.9696V20.0001C26.0411 20.1738 26.1161 20.3302 26.2359 20.441H20.2178C19.8738 20.441 19.595 20.7132 19.595 21.049V24.8271C19.4815 24.7102 19.3214 24.6369 19.1434 24.6369H19.1123C18.7684 24.6369 18.4895 24.9092 18.4895 25.2449C18.4895 25.5807 18.7684 25.853 19.1123 25.853H19.1434C19.3214 25.853 19.4815 25.7797 19.595 25.6629V28.392C19.595 28.7278 19.8738 29 20.2178 29H28.8127C29.1566 29 29.4355 28.7278 29.4355 28.392V21.0489C29.4355 20.7133 29.1566 20.441 28.8127 20.441ZM28.1898 21.657V25.6862H20.8406V21.657H28.1898V21.657ZM20.8406 27.7841V26.9022H28.1898V27.7841H20.8406Z" fill="#C94C48"/>
<path d="M23.0516 15.3628H23.1134C23.4572 15.3628 23.736 15.0906 23.736 14.7549C23.736 14.4193 23.4572 14.1471 23.1134 14.1471H23.0516C22.7078 14.1471 22.4291 14.4193 22.4291 14.7549C22.4291 15.0906 22.7078 15.3628 23.0516 15.3628Z" fill="#C94C48"/>
<path d="M24.8422 15.3628H24.9039C25.2477 15.3628 25.5265 15.0906 25.5265 14.7549C25.5265 14.4193 25.2477 14.1471 24.9039 14.1471H24.8422C24.4983 14.1471 24.2195 14.4193 24.2195 14.7549C24.2195 15.0906 24.4983 15.3628 24.8422 15.3628Z" fill="#C94C48"/>
<path d="M26.6637 15.3931C27.0075 15.3931 27.2863 15.121 27.2863 14.7853V14.7549C27.2863 14.4193 27.0075 14.1471 26.6637 14.1471H26.6325C26.2887 14.1471 26.0099 14.4193 26.0099 14.7549C26.0099 14.9305 26.0862 15.0887 26.2081 15.1997C26.3218 15.3187 26.4838 15.3931 26.6637 15.3931Z" fill="#C94C48"/>
<path d="M27.2863 16.4732C27.2863 16.1375 27.0075 15.8654 26.6636 15.8654C26.3198 15.8654 26.041 16.1375 26.041 16.4732V16.5335C26.041 16.8691 26.3198 17.1413 26.6636 17.1413C27.0075 17.1413 27.2863 16.8691 27.2863 16.5335V16.4732Z" fill="#C94C48"/>
<path d="M26.6636 17.6135C26.3198 17.6135 26.041 17.8857 26.041 18.2213V18.2815C26.041 18.6172 26.3198 18.8893 26.6636 18.8893C27.0075 18.8893 27.2863 18.6172 27.2863 18.2815V18.2213C27.2863 17.8857 27.0075 17.6135 26.6636 17.6135Z" fill="#C94C48"/>
<path d="M17.3835 24.637H17.3217C16.9779 24.637 16.6992 24.9092 16.6992 25.2448C16.6992 25.5805 16.9779 25.8526 17.3217 25.8526H17.3835C17.7273 25.8526 18.0061 25.5805 18.0061 25.2448C18.0061 24.9092 17.7273 24.637 17.3835 24.637Z" fill="#C94C48"/>
<path d="M15.593 24.637H15.5313C15.1875 24.637 14.9087 24.9092 14.9087 25.2448C14.9087 25.5805 15.1875 25.8526 15.5313 25.8526H15.593C15.9368 25.8526 16.2156 25.5805 16.2156 25.2448C16.2156 24.9092 15.9368 24.637 15.593 24.637Z" fill="#C94C48"/>
<path d="M13.7715 24.6066C13.4277 24.6066 13.1489 24.8787 13.1489 25.2144V25.2448C13.1489 25.5805 13.4277 25.8526 13.7715 25.8526H13.8027C14.1465 25.8526 14.4253 25.5805 14.4253 25.2448C14.4253 25.0693 14.3491 24.911 14.2271 24.8001C14.1135 24.681 13.9514 24.6066 13.7715 24.6066Z" fill="#C94C48"/>
<path d="M14.3942 21.7182C14.3942 21.3825 14.1154 21.1104 13.7715 21.1104C13.4277 21.1104 13.1489 21.3825 13.1489 21.7182V21.7784C13.1489 22.1141 13.4277 22.3862 13.7715 22.3862C14.1154 22.3862 14.3942 22.1141 14.3942 21.7784V21.7182Z" fill="#C94C48"/>
<path d="M13.7715 22.8584C13.4277 22.8584 13.1489 23.1306 13.1489 23.4662V23.5265C13.1489 23.8622 13.4277 24.1343 13.7715 24.1343C14.1154 24.1343 14.3942 23.8622 14.3942 23.5265V23.4662C14.3942 23.1306 14.1154 22.8584 13.7715 22.8584Z" fill="#C94C48"/>
<path d="M13.1489 20.0001V20.0305C13.1489 20.3662 13.4278 20.6384 13.7718 20.6384C14.1157 20.6384 14.3946 20.3662 14.3946 20.0305V20.0001C14.3946 19.8263 14.3195 19.6699 14.1998 19.5591H20.2178C20.5617 19.5591 20.8406 19.2869 20.8406 18.9511V15.173C20.9541 15.2898 21.1142 15.3631 21.2921 15.3631H21.3232C21.6672 15.3631 21.946 15.0909 21.946 14.7551C21.946 14.4194 21.6672 14.1471 21.3232 14.1471H21.2921C21.1142 14.1471 20.9541 14.2204 20.8406 14.3372V11.6081C20.8406 11.2722 20.5617 11 20.2178 11H11.6229C11.2789 11 11 11.2722 11 11.608V18.9511C11 19.2868 11.2789 19.5591 11.6228 19.5591H13.3438C13.224 19.6699 13.1489 19.8263 13.1489 20.0001ZM19.595 12.2161V16.2451H12.2457V12.2161H19.595ZM12.2457 17.4611H19.595V18.3431H12.2457V17.4611Z" fill="#C94C48"/>
</g>
<defs>
<filter id="filter0_d_7_176" x="0" y="0" width="40.4355" height="40" filterUnits="userSpaceOnUse" color-interpolation-filters="sRGB">
<feFlood flood-opacity="0" result="BackgroundImageFix"/>
<feColorMatrix in="SourceAlpha" type="matrix" values="0 0 0 0 0 0 0 0 0 0 0 0 0 0 0 0 0 0 127 0" result="hardAlpha"/>
<feOffset/>
<feGaussianBlur stdDeviation="5.5"/>
<feComposite in2="hardAlpha" operator="out"/>
<feColorMatrix type="matrix" values="0 0 0 0 0.788235 0 0 0 0 0.298039 0 0 0 0 0.282353 0 0 0 0.4 0"/>
<feBlend mode="normal" in2="BackgroundImageFix" result="effect1_dropShadow_7_176"/>
<feBlend mode="normal" in="SourceGraphic" in2="effect1_dropShadow_7_176" result="shape"/>
</filter>
</defs>
</svg>
