<svg viewBox="0 0 16 16" fill="none" xmlns="http://www.w3.org/2000/svg">
<path d="M8 0C3.5888 0 0 3.58884 0 7.99997C0 12.4112 3.5888 16 8 16C12.4112 16 16 12.4112 16 7.99997C16 3.58884 12.4112 0 8 0ZM8 14.5454C4.39084 14.5454 1.45455 11.6092 1.45455 8.00002C1.45455 4.39087 4.39084 1.45462 8 1.45462C11.6092 1.45462 14.5455 4.39087 14.5455 7.99997C14.5455 11.6092 11.6092 14.5454 8 14.5454Z" fill="#C94C48"/>
<path d="M7.99995 6.30328C7.5983 6.30328 7.27267 6.62892 7.27267 7.03059V11.8785C7.27267 12.2802 7.5983 12.6058 7.99995 12.6058C8.4016 12.6058 8.72722 12.2802 8.72722 11.8785V7.03059C8.72722 6.62897 8.4016 6.30328 7.99995 6.30328Z" fill="#C94C48"/>
<path d="M8.00021 3.39417C7.80863 3.39417 7.62136 3.47177 7.4856 3.6071C7.35028 3.74243 7.27267 3.93015 7.27267 4.12174C7.27267 4.31334 7.35028 4.50057 7.4856 4.63638C7.62092 4.77171 7.80863 4.84932 8.00021 4.84932C8.1918 4.84932 8.37902 4.77171 8.51478 4.63638C8.6501 4.50057 8.72775 4.31334 8.72775 4.12174C8.72775 3.93015 8.6501 3.74243 8.51478 3.6071C8.37902 3.47172 8.1918 3.39417 8.00021 3.39417Z" fill="#C94C48"/>
</svg>
