<svg viewBox="0 0 40 40" fill="none" xmlns="http://www.w3.org/2000/svg">
<g filter="url(#filter0_d_7_243)">
<path d="M25.4 21.8C23.4149 21.8 21.8 23.4149 21.8 25.4C21.8 27.3851 23.4149 29 25.4 29C27.3851 29 29 27.3851 29 25.4C29 23.4149 27.3851 21.8 25.4 21.8ZM25.4 28.4C23.7458 28.4 22.4 27.0542 22.4 25.4C22.4 23.7458 23.7458 22.4 25.4 22.4C27.0542 22.4 28.4 23.7458 28.4 25.4C28.4 27.0542 27.0542 28.4 25.4 28.4Z" fill="#C94C48"/>
<path d="M27.2 25.1H25.7V23.6C25.7 23.4341 25.5659 23.3 25.4 23.3C25.2341 23.3 25.1 23.4341 25.1 23.6V25.4C25.1 25.5659 25.2341 25.7 25.4 25.7H27.2C27.3659 25.7 27.5 25.5659 27.5 25.4C27.5 25.2341 27.3659 25.1 27.2 25.1Z" fill="#C94C48"/>
<path d="M11.2505 17.3C11.0942 17.522 11 17.7905 11 18.0824V21.6173C11 21.9095 11.0942 22.178 11.2505 22.4H22.0553C22.8797 21.4817 24.0716 20.9 25.4 20.9C26.7284 20.9 27.9203 21.4817 28.7447 22.4H28.7495C28.9058 22.178 29 21.9095 29 21.6176V18.0824C29 17.7902 28.9058 17.522 28.7495 17.3H11.2505ZM14.15 21.2C13.4057 21.2 12.8 20.5943 12.8 19.85C12.8 19.1057 13.4057 18.5 14.15 18.5C14.8943 18.5 15.5 19.1057 15.5 19.85C15.5 20.5943 14.8943 21.2 14.15 21.2ZM21.2 19.7C21.0344 19.7 20.9 19.5656 20.9 19.4C20.9 19.2344 21.0344 19.1 21.2 19.1C21.3656 19.1 21.5 19.2344 21.5 19.4C21.5 19.5656 21.3656 19.7 21.2 19.7ZM22.4 19.7C22.2344 19.7 22.1 19.5656 22.1 19.4C22.1 19.2344 22.2344 19.1 22.4 19.1C22.5656 19.1 22.7 19.2344 22.7 19.4C22.7 19.5656 22.5656 19.7 22.4 19.7ZM23.6 19.7C23.4344 19.7 23.3 19.5656 23.3 19.4C23.3 19.2344 23.4344 19.1 23.6 19.1C23.7656 19.1 23.9 19.2344 23.9 19.4C23.9 19.5656 23.7656 19.7 23.6 19.7ZM24.8 19.7C24.6344 19.7 24.5 19.5656 24.5 19.4C24.5 19.2344 24.6344 19.1 24.8 19.1C24.9656 19.1 25.1 19.2344 25.1 19.4C25.1 19.5656 24.9656 19.7 24.8 19.7ZM26 19.7C25.8344 19.7 25.7 19.5656 25.7 19.4C25.7 19.2344 25.8344 19.1 26 19.1C26.1656 19.1 26.3 19.2344 26.3 19.4C26.3 19.5656 26.1656 19.7 26 19.7Z" fill="#C94C48"/>
<path d="M27.6176 11H12.3824C11.6201 11 11 11.6201 11 12.3824V15.9173C11 16.2095 11.0942 16.478 11.2505 16.7H28.7492C28.9058 16.478 29 16.2095 29 15.9176V12.3824C29 11.6201 28.3799 11 27.6176 11ZM14.15 15.5C13.4057 15.5 12.8 14.8943 12.8 14.15C12.8 13.4057 13.4057 12.8 14.15 12.8C14.8943 12.8 15.5 13.4057 15.5 14.15C15.5 14.8943 14.8943 15.5 14.15 15.5ZM21.2 14C21.0344 14 20.9 13.8656 20.9 13.7C20.9 13.5344 21.0344 13.4 21.2 13.4C21.3656 13.4 21.5 13.5344 21.5 13.7C21.5 13.8656 21.3656 14 21.2 14ZM21.8 14.9C21.6344 14.9 21.5 14.7656 21.5 14.6C21.5 14.4344 21.6344 14.3 21.8 14.3C21.9656 14.3 22.1 14.4344 22.1 14.6C22.1 14.7656 21.9656 14.9 21.8 14.9ZM22.4 14C22.2344 14 22.1 13.8656 22.1 13.7C22.1 13.5344 22.2344 13.4 22.4 13.4C22.5656 13.4 22.7 13.5344 22.7 13.7C22.7 13.8656 22.5656 14 22.4 14ZM23 14.9C22.8344 14.9 22.7 14.7656 22.7 14.6C22.7 14.4344 22.8344 14.3 23 14.3C23.1656 14.3 23.3 14.4344 23.3 14.6C23.3 14.7656 23.1656 14.9 23 14.9ZM23.6 14C23.4344 14 23.3 13.8656 23.3 13.7C23.3 13.5344 23.4344 13.4 23.6 13.4C23.7656 13.4 23.9 13.5344 23.9 13.7C23.9 13.8656 23.7656 14 23.6 14ZM24.2 14.9C24.0344 14.9 23.9 14.7656 23.9 14.6C23.9 14.4344 24.0344 14.3 24.2 14.3C24.3656 14.3 24.5 14.4344 24.5 14.6C24.5 14.7656 24.3656 14.9 24.2 14.9ZM24.8 14C24.6344 14 24.5 13.8656 24.5 13.7C24.5 13.5344 24.6344 13.4 24.8 13.4C24.9656 13.4 25.1 13.5344 25.1 13.7C25.1 13.8656 24.9656 14 24.8 14ZM25.4 14.9C25.2344 14.9 25.1 14.7656 25.1 14.6C25.1 14.4344 25.2344 14.3 25.4 14.3C25.5656 14.3 25.7 14.4344 25.7 14.6C25.7 14.7656 25.5656 14.9 25.4 14.9ZM26 14C25.8344 14 25.7 13.8656 25.7 13.7C25.7 13.5344 25.8344 13.4 26 13.4C26.1656 13.4 26.3 13.5344 26.3 13.7C26.3 13.8656 26.1656 14 26 14ZM26.6 14.9C26.4344 14.9 26.3 14.7656 26.3 14.6C26.3 14.4344 26.4344 14.3 26.6 14.3C26.7656 14.3 26.9 14.4344 26.9 14.6C26.9 14.7656 26.7656 14.9 26.6 14.9Z" fill="#C94C48"/>
<path d="M20.9123 25.1603C20.9078 25.1402 20.9 25.1213 20.9 25.1C20.9 25.0643 20.909 25.0313 20.9204 24.9995C20.9852 24.2684 21.2267 23.5889 21.6002 23H11.2505C11.0942 23.222 11 23.4905 11 23.7824V27.3173C11 28.0799 11.6201 28.7 12.3824 28.7H22.3508C21.4613 27.8774 20.9 26.7044 20.9 25.4C20.9 25.319 20.9078 25.2401 20.9123 25.1603ZM14.15 26.9C13.4057 26.9 12.8 26.2943 12.8 25.55C12.8 24.8057 13.4057 24.2 14.15 24.2C14.8943 24.2 15.5 24.8057 15.5 25.55C15.5 26.2943 14.8943 26.9 14.15 26.9Z" fill="#C94C48"/>
</g>
<defs>
<filter id="filter0_d_7_243" x="0" y="0" width="40" height="40" filterUnits="userSpaceOnUse" color-interpolation-filters="sRGB">
<feFlood flood-opacity="0" result="BackgroundImageFix"/>
<feColorMatrix in="SourceAlpha" type="matrix" values="0 0 0 0 0 0 0 0 0 0 0 0 0 0 0 0 0 0 127 0" result="hardAlpha"/>
<feOffset/>
<feGaussianBlur stdDeviation="5.5"/>
<feComposite in2="hardAlpha" operator="out"/>
<feColorMatrix type="matrix" values="0 0 0 0 0.788235 0 0 0 0 0.298039 0 0 0 0 0.282353 0 0 0 0.4 0"/>
<feBlend mode="normal" in2="BackgroundImageFix" result="effect1_dropShadow_7_243"/>
<feBlend mode="normal" in="SourceGraphic" in2="effect1_dropShadow_7_243" result="shape"/>
</filter>
</defs>
</svg>
