<svg viewBox="0 0 16 16" fill="none" xmlns="http://www.w3.org/2000/svg">
<path d="M13.9222 0H3.48054L0 3.42159V16H13.9222C13.9222 10.6882 13.9222 1.94532 13.9222 0ZM3.72156 1.35504V3.42159H1.47384L3.72156 1.35504ZM13.146 14.9746H1.10367V3.90297H4.24513V1.01471H13.146C13.146 1.14176 13.146 1.52082 13.146 2.08714C13.146 4.58872 13.146 10.7442 13.146 14.9746ZM13.146 2.08714C7.34618 2.56521 21.8396 1.37055 13.146 2.08714Z" fill="#C94C48"/>
<path d="M9.04369 6.95129C9.41691 6.95129 9.72063 7.25501 9.72063 7.62823H10.1719C10.1719 7.00612 9.6658 6.5 9.04369 6.5C8.42159 6.5 7.91547 7.00612 7.91547 7.62823V8.07952C7.91547 8.70162 8.42159 9.20774 9.04369 9.20774C9.29867 9.20774 9.53154 9.11951 9.72063 8.97623V9.20774H10.1719V8.07952H9.72063H9.26934V8.53081H9.54462C9.42075 8.66822 9.24294 8.75645 9.04369 8.75645C8.67047 8.75645 8.36676 8.45273 8.36676 8.07952V7.62823C8.36676 7.25501 8.67047 6.95129 9.04369 6.95129Z" fill="#C94C48"/>
<path d="M6.33596 6.5C5.71386 6.5 5.20773 7.00612 5.20773 7.62823V8.07952C5.20773 8.70162 5.71386 9.20774 6.33596 9.20774C6.95806 9.20774 7.46418 8.70162 7.46418 8.07952V7.62823C7.46418 7.00612 6.95806 6.5 6.33596 6.5ZM7.01289 8.07952C7.01289 8.45273 6.70918 8.75645 6.33596 8.75645C5.96274 8.75645 5.65902 8.45273 5.65902 8.07952V7.62823C5.65902 7.25501 5.96274 6.95129 6.33596 6.95129C6.70918 6.95129 7.01289 7.25501 7.01289 7.62823V8.07952Z" fill="#C94C48"/>
<path d="M2.95129 6.5H2.5V9.20774H4.75645V8.75645H2.95129V6.5Z" fill="#C94C48"/>
</svg>
