<svg  viewBox="0 0 16 16" fill="none" xmlns="http://www.w3.org/2000/svg">
<path d="M15.3113 5.64994H14.0873C14.0547 5.54876 13.9861 5.44431 13.9502 5.34313L14.8021 4.49123C15.073 4.22032 15.073 3.80906 14.8021 3.53815L12.4553 1.19135C12.1844 0.920441 11.7732 0.920441 11.5022 1.19135L10.6503 2.04325C10.5492 1.9747 10.4447 1.94206 10.3435 1.90616V0.682171C10.3435 0.306814 10.0367 0 9.66136 0H6.32885C5.95349 0 5.64667 0.306814 5.64667 0.682171V1.90616C5.54549 1.9388 5.44104 2.00734 5.33986 2.04325L4.48796 1.19135C4.21705 0.920441 3.80579 0.920441 3.53488 1.19135L1.18809 3.53815C1.051 3.67523 0.982456 3.84496 0.982456 4.01469C0.982456 4.18441 1.051 4.35414 1.18809 4.49123L2.03998 5.34313C1.97144 5.44431 1.9388 5.54876 1.9029 5.64994H0.682171C0.306814 5.64994 0 5.95675 0 6.33211V9.66789C0 10.0432 0.306814 10.3501 0.682171 10.3501H1.90616C1.9388 10.4512 2.00734 10.5557 2.04325 10.6569L1.19135 11.5088C1.05426 11.6459 0.98572 11.8156 0.98572 11.9853C0.98572 12.155 1.05426 12.3248 1.19135 12.4619L3.53815 14.8086C3.80906 15.0796 4.22032 15.0796 4.49123 14.8086L5.34313 13.9568C5.44431 14.0253 5.54876 14.0579 5.64994 14.0938V15.3178C5.64994 15.6932 5.95675 16 6.33211 16H9.66789C10.0432 16 10.3501 15.6932 10.3501 15.3178V14.0938C10.4512 14.0612 10.5557 13.9927 10.6569 13.9568L11.5088 14.8086C11.7797 15.0796 12.1909 15.0796 12.4619 14.8086L14.8086 12.4619C15.0796 12.1909 15.0796 11.7797 14.8086 11.5088L13.9568 10.6569C14.0253 10.5557 14.0579 10.4512 14.0938 10.3501H15.3178C15.6932 10.3501 16 10.0432 16 9.66789V6.32885C15.9935 5.95349 15.6867 5.64994 15.3113 5.64994ZM14.6324 8.98246H13.6108C13.304 8.98246 13.0657 9.18809 12.9645 9.459C12.8633 9.79845 12.7262 10.1412 12.5565 10.4447C12.3868 10.7156 12.4553 11.0583 12.6577 11.2607L13.3725 11.9755L11.9788 13.3725L11.264 12.6577C11.0257 12.4521 10.7189 12.4194 10.448 12.5565C10.1412 12.7262 9.80171 12.8633 9.46226 12.9645C9.19135 13.033 8.98572 13.304 8.98572 13.6108V14.6324H7.01102V13.6108C7.01102 13.304 6.80539 13.0657 6.53448 12.9645C6.19502 12.8633 5.85231 12.7262 5.54876 12.5565C5.27785 12.3868 4.93513 12.4553 4.73276 12.6577L4.01469 13.3725L2.62097 11.9788L3.33578 11.264C3.54141 11.0257 3.57405 10.7189 3.43696 10.448C3.26724 10.1412 3.13015 9.80171 3.02897 9.46226C2.96042 9.19135 2.68951 8.98572 2.3827 8.98572H1.36108V7.01102H2.3827C2.68951 7.01102 2.92778 6.80539 3.02897 6.53448C3.13015 6.19502 3.26724 5.85231 3.43696 5.54876C3.60669 5.27785 3.53815 4.93513 3.33578 4.73276L2.62097 4.01469L4.01469 2.62097L4.7295 3.33578C4.96777 3.54141 5.27458 3.57405 5.54549 3.43696C5.8523 3.26724 6.19176 3.13015 6.53121 3.02897C6.80212 2.96042 7.00775 2.68951 7.00775 2.3827V1.36108H8.98246V2.3827C8.98246 2.68951 9.18809 2.92778 9.459 3.02897C9.79845 3.13015 10.1412 3.26724 10.4447 3.43696C10.7156 3.60669 11.0583 3.53815 11.2607 3.33578L11.9788 2.62097L13.3725 4.01469L12.6577 4.7295C12.4521 4.96777 12.4194 5.27458 12.5565 5.54549C12.7262 5.8523 12.8633 6.19176 12.9645 6.53121C13.033 6.80212 13.304 7.00775 13.6108 7.00775H14.6324V8.98246Z" fill="#C94C48"/>
<path d="M7.99674 4.28882C5.95349 4.28882 4.28886 5.95671 4.28886 7.99669C4.28886 10.0367 5.95349 11.7046 7.99674 11.7046C10.04 11.7046 11.7046 10.0399 11.7046 7.99669C11.7046 5.95345 10.04 4.28882 7.99674 4.28882ZM7.99674 10.3435C6.70421 10.3435 5.64994 9.28923 5.64994 7.99669C5.64994 6.70416 6.70421 5.6499 7.99674 5.6499C9.28927 5.6499 10.3435 6.70416 10.3435 7.99669C10.3435 9.28923 9.28927 10.3435 7.99674 10.3435Z" fill="#C94C48"/>
</svg>
