<svg viewBox="0 0 44 44" fill="none" xmlns="http://www.w3.org/2000/svg">
<g filter="url(#filter0_d_7_213)">
<path d="M19.6832 32.55C19.6332 32.55 19.5832 32.55 19.5332 32.53C15.7032 31.75 12.5932 28.93 11.4332 25.19C11.3132 24.79 11.5332 24.37 11.9232 24.25C12.3232 24.13 12.7432 24.35 12.8632 24.74C13.8632 27.96 16.5332 30.38 19.8332 31.05C20.2432 31.13 20.5032 31.53 20.4132 31.94C20.3432 32.3 20.0232 32.55 19.6832 32.55Z" fill="#C94C48"/>
<path d="M31.6436 21.73C31.2636 21.73 30.9336 21.44 30.8936 21.06C30.4136 16.32 26.4536 12.75 21.6936 12.75C16.9236 12.75 12.9736 16.32 12.4936 21.05C12.4536 21.46 12.0936 21.77 11.6736 21.72C11.2636 21.68 10.9636 21.31 11.0036 20.9C11.5636 15.4 16.1636 11.25 21.6936 11.25C27.2336 11.25 31.8336 15.4 32.3836 20.9C32.4236 21.31 32.1236 21.68 31.7136 21.72C31.6936 21.73 31.6636 21.73 31.6436 21.73Z" fill="#C94C48"/>
<path d="M23.7034 32.55C23.3534 32.55 23.0434 32.31 22.9734 31.95C22.8934 31.54 23.1534 31.15 23.5534 31.07C26.8334 30.4 29.5034 28 30.5134 24.8C30.6334 24.4 31.0634 24.18 31.4534 24.31C31.8534 24.43 32.0634 24.86 31.9434 25.25C30.7634 28.97 27.6634 31.76 23.8534 32.54C23.8034 32.54 23.7534 32.55 23.7034 32.55Z" fill="#C94C48"/>
</g>
<defs>
<filter id="filter0_d_7_213" x="0" y="0.25" width="43.3871" height="43.3" filterUnits="userSpaceOnUse" color-interpolation-filters="sRGB">
<feFlood flood-opacity="0" result="BackgroundImageFix"/>
<feColorMatrix in="SourceAlpha" type="matrix" values="0 0 0 0 0 0 0 0 0 0 0 0 0 0 0 0 0 0 127 0" result="hardAlpha"/>
<feOffset/>
<feGaussianBlur stdDeviation="5.5"/>
<feComposite in2="hardAlpha" operator="out"/>
<feColorMatrix type="matrix" values="0 0 0 0 0.788235 0 0 0 0 0.298039 0 0 0 0 0.282353 0 0 0 0.4 0"/>
<feBlend mode="normal" in2="BackgroundImageFix" result="effect1_dropShadow_7_213"/>
<feBlend mode="normal" in="SourceGraphic" in2="effect1_dropShadow_7_213" result="shape"/>
</filter>
</defs>
</svg>
